<?xml version="1.0" encoding="UTF-8"?>
<svg id="Layer_1" xmlns="http://www.w3.org/2000/svg" version="1.1" xmlns:xlink="http://www.w3.org/1999/xlink" viewBox="0 0 700 700">
  <!-- Generator: Adobe Illustrator 29.3.1, SVG Export Plug-In . SVG Version: 2.1.0 Build 151)  -->
  <defs>
    <style>
      .st0 {
        stroke-linejoin: round;
      }

      .st0, .st1, .st2, .st3, .st4 {
        fill: none;
      }

      .st0, .st1, .st2, .st4 {
        stroke: #4295d2;
      }

      .st5 {
        fill: #fff;
      }

      .st6 {
        mask: url(#mask);
      }

      .st2 {
        stroke-width: .5px;
      }

      .st3 {
        stroke: url(#linear-gradient1);
      }

      .st4 {
        stroke-width: 2px;
      }

      .st7 {
        fill: url(#linear-gradient);
      }
    </style>
    <linearGradient id="linear-gradient" x1="217.3" y1="549.7" x2="475.1" y2="165.6" gradientTransform="translate(0 702) scale(1 -1)" gradientUnits="userSpaceOnUse">
      <stop offset=".4" stop-color="#3eb6f4"/>
      <stop offset=".8" stop-color="#4fc4ff"/>
      <stop offset="1" stop-color="#63ceff"/>
    </linearGradient>
    <linearGradient id="linear-gradient1" x1="257.4" y1="543.9" x2="442.2" y2="160.8" gradientTransform="translate(0 702) scale(1 -1)" gradientUnits="userSpaceOnUse">
      <stop offset="0" stop-color="#48b2ff"/>
      <stop offset=".8" stop-color="#4bc4fb"/>
      <stop offset="1" stop-color="#85d9ff"/>
    </linearGradient>
    <mask id="mask" x="181.5" y="274.8" width="312" height="136.7" maskUnits="userSpaceOnUse">
      <g id="c">
        <path class="st5" d="M465.5,291.2h26v117.6h-25.3v-117.6h-.7ZM414.3,291.2h28v117.6h-26v-76.6l-34.2,49.9-33.5-49.9v76.6h-26v-117.6h28.7l31.4,49.9s31.4-49.9,31.4-49.9ZM190.7,350c0-33.5,26.7-60.8,62.9-60.8s34.2,5.5,46.5,16.4l-16.4,19.1c-8.6-7.8-19.8-12-31.4-11.6-19.1,0-34.2,16.4-34.2,36.2v.7c0,21.2,15,36.9,36.2,36.9s17.8-2.1,24.6-6.8v-16.4h-26v-22.6h51.3v51.3c-14.2,11.9-32.1,18.5-50.6,18.5-37.6,0-62.9-26-62.9-60.8Z"/>
      </g>
    </mask>
  </defs>
  <rect class="st5" width="700" height="700"/>
  <g>
    <path class="st7" d="M350,568.8c120.8,0,218.8-97.9,218.8-218.8s-97.9-218.8-218.8-218.8-218.8,97.9-218.8,218.8,97.9,218.8,218.8,218.8Z"/>
    <path class="st3" d="M350,564.6c118.5,0,214.6-96.1,214.6-214.6s-96.1-214.6-214.6-214.6-214.6,96.1-214.6,214.6,96.1,214.6,214.6,214.6Z"/>
    <g class="st6">
      <g>
        <path class="st5" d="M465.5,291.2h26v117.6h-25.3v-117.6h-.7ZM414.3,291.2h28v117.6h-26v-76.6l-34.2,49.9-33.5-49.9v76.6h-26v-117.6h28.7l31.4,49.9s31.4-49.9,31.4-49.9ZM190.7,350c0-33.5,26.7-60.8,62.9-60.8s34.2,5.5,46.5,16.4l-16.4,19.1c-8.6-7.8-19.8-12-31.4-11.6-19.1,0-34.2,16.4-34.2,36.2v.7c0,21.2,15,36.9,36.2,36.9s17.8-2.1,24.6-6.8v-16.4h-26v-22.6h51.3v51.3c-14.2,11.9-32.1,18.5-50.6,18.5-37.6,0-62.9-26-62.9-60.8Z"/>
        <path class="st1" d="M247.5,341.1h61.5"/>
        <path class="st0" d="M278.2,380.8c-37.6,17.1-61.5-3.4-51.3-44.4"/>
        <path class="st4" d="M305.6,305.6c-15.7-25.3-104.6-39-123,37.6"/>
        <path class="st1" d="M409.5,295.3l-26.7,41-26.7-41h53.3Z"/>
        <path class="st4" d="M315.8,288.5h177.7"/>
        <path class="st2" d="M464.2,274.8v136.7M444.3,274.8v136.7M321.3,274.8v136.7M306.2,274.8v136.7"/>
      </g>
    </g>
  </g>
</svg>