<?xml version="1.0" encoding="UTF-8"?>
<svg id="Layer_1" xmlns="http://www.w3.org/2000/svg" version="1.1" xmlns:xlink="http://www.w3.org/1999/xlink" viewBox="0 0 700 700">
  <!-- Generator: Adobe Illustrator 29.3.1, SVG Export Plug-In . SVG Version: 2.1.0 Build 151)  -->
  <defs>
    <style>
      .st0 {
        fill: #fff;
      }

      .st1 {
        fill: #cd0015;
      }
    </style>
  </defs>
  <rect width="700" height="700"/>
  <g>
    <g>
      <path class="st0" d="M139.3,421v13.4h14.1v-13.4h7.6v34.5h-7.6v-14.9h-14.1v14.9h-7.6v-34.5h7.6Z"/>
      <path class="st0" d="M205.7,421v6.5h-16.7v8h14.5v5.8h-14.5v14.1h-7.6v-34.5h24.3Z"/>
      <path class="st0" d="M261.9,421l8,23.9h0l7.6-23.9h10.5v34.5h-7.3v-24.7h0l-8,25h-5.8l-8.3-24.3h0v24.3h-7.3v-34.5h10.5v-.4Z"/>
      <path class="st0" d="M326.1,421l13.1,34.5h-8l-2.5-7.6h-13.1l-2.5,7.6h-7.6l13.1-34.5h7.6ZM326.8,442.4l-4.4-12.7h0l-4.4,12.7h8.7Z"/>
      <path class="st0" d="M374.7,421c1.5,0,2.9.4,4.4.7,1.1.4,2.2,1.1,3.3,2.2.7.7,1.5,1.8,2.2,2.9.4,1.1.7,2.5.7,3.6,0,2.2-.4,3.6-1.5,5.4-.7,1.5-2.2,2.5-4.4,3.3h0c1.1.4,1.8.7,2.2,1.1.7.4,1.1,1.1,1.5,1.8s.7,1.5.7,2.5.4,1.8.4,2.5v4c0,.7.4,1.5.4,2.2s.4,1.5.7,1.8h-7.3c-.4-1.1-.7-2.5-.7-4s-.4-2.9-.4-4.4c-.4-1.8-.7-3.3-1.8-4-.7-.7-2.2-1.1-4-1.1h-7.6v13.4h-7.6v-34.5l18.9.4h0ZM371.8,436.6c1.8,0,2.9-.4,4-1.1.7-.7,1.5-2.2,1.5-3.6s-.4-2.9-1.5-3.6c-.7-.7-2.2-1.1-4-1.1h-8.3v9.8h8.3v-.4Z"/>
      <path class="st0" d="M412.4,421v14.5l13.4-14.5h9.4l-13.4,13.8,14.9,21h-9.4l-10.5-15.6-4.4,4.4v11.2h-7.6v-34.5l7.6-.4h0Z"/>
      <path class="st0" d="M479.2,421v6.5h-18.1v7.3h16.7v5.8h-16.7v8.3h18.5v6.5h-26.1v-34.5h25.8Z"/>
      <path class="st0" d="M495.9,427.5v-6.5h28.3v6.5h-10.5v28.3h-7.6v-28.3h-10.2Z"/>
      <path class="st0" d="M547.7,447.1c.4.7,1.1,1.5,1.8,1.8s1.5.7,2.5,1.1c1.1.4,1.8.4,2.9.4h2.2c.7,0,1.5-.4,2.2-.7.7-.4,1.1-.7,1.8-1.5.4-.7.7-1.5.7-2.2,0-1.1-.4-1.8-.7-2.2-.7-.7-1.5-1.1-2.2-1.5-1.1-.4-2.2-.7-3.3-1.1s-2.5-.7-3.6-1.1c-1.5-.4-2.5-.7-3.6-1.1s-2.2-1.1-3.3-1.8-1.8-1.8-2.2-2.9c-.7-1.1-.7-2.5-.7-4s.4-3.3,1.1-4.7c.7-1.5,1.8-2.5,2.9-3.3s2.5-1.5,4-1.8,3.3-.7,4.7-.7,3.6.4,5.1.7c1.8.4,3.3,1.1,4.4,1.8s2.2,2.2,2.9,3.6c.7,1.5,1.1,3.3,1.1,5.1h-7.3c0-1.1-.4-1.8-.7-2.5s-.7-1.1-1.5-1.5-1.5-.7-2.2-.7-1.8-.4-2.5-.4-1.1,0-1.8.4c-.7,0-1.1.4-1.8.7-.4.4-1.1.7-1.1,1.1-.4.4-.4,1.1-.4,1.8s0,1.1.4,1.8c.4.4.7.7,1.5,1.1.7.4,1.8.7,3.3,1.1s3.3.7,5.1,1.5c.7,0,1.5.4,2.5.7,1.1.4,2.2.7,3.3,1.5s2.2,1.8,2.9,2.9c.7,1.1,1.1,2.9,1.1,4.7s-.4,2.9-1.1,4.4c-.7,1.5-1.5,2.5-2.9,3.6-1.1,1.1-2.5,1.8-4.4,2.2-1.8.7-4,.7-6.2.7s-3.6-.4-5.4-.7c-1.8-.4-3.3-1.1-4.7-2.2s-2.5-2.2-3.3-4c-.7-1.5-1.1-3.3-1.1-5.4h7.3c0,1.5,0,2.5.4,3.3Z"/>
    </g>
    <g>
      <polygon class="st1" points="494.4 317.9 420.1 243.6 420.1 285.3 494.4 359.6 515.5 338.6 515.5 338.6 539.8 314.3 539.8 388.3 569.1 388.3 569.1 243.6 494.4 317.9"/>
      <g>
        <path class="st0" d="M163.6,244.3v55.1h57.3v-55.1h31.2v144h-31.2v-62.4h-57.3v62h-30.8v-143.7h30.8Z"/>
        <path class="st0" d="M375.1,244.3v26.5h-68.2v33.4h59.5v24.7h-59.5v59.5h-31.2v-144h99.4Z"/>
      </g>
      <polygon class="st0" points="428.4 272.9 399 243.6 399 388.3 428.4 388.3 428.4 314.7 494.4 380.7 494.4 339.3 428.4 272.9"/>
    </g>
  </g>
</svg>