<?xml version="1.0" encoding="UTF-8"?>
<svg id="Layer_1" xmlns="http://www.w3.org/2000/svg" version="1.1" viewBox="0 0 700 700">
  <!-- Generator: Adobe Illustrator 29.3.1, SVG Export Plug-In . SVG Version: 2.1.0 Build 151)  -->
  <defs>
    <style>
      .st0 {
        fill: #1334ef;
      }

      .st1 {
        fill: #fff;
      }
    </style>
  </defs>
  <rect class="st0" width="700" height="700"/>
  <g>
    <path class="st1" d="M238.1,309.1c0,47-.1,86.1-.3,87-.9,9.6-2.6,16.3-5.1,21.6-3.8,7.9-9.7,13.1-18.9,16.2-5.4,1.9-9.5,2.4-18.3,2.5-8.1,0-11.4-.4-18-2.3-7.6-2.1-21-8.3-27.6-12.8-1.3-.8-2.4-1.5-2.6-1.5s-2,3.6-4,7.9c-2,4.4-4.7,10.3-6,13.2-1.4,2.9-2.4,5.3-2.4,5.4,0,.2-.9,2.1-1.9,4.2-1.8,3.7-1.9,4-.8,4.8.6.4,1.6,1.1,2.1,1.6,4.2,3.5,16.2,9.3,25.9,12.6,12.9,4.3,22.7,5.8,38.2,5.8,10,0,13.4-.2,21.5-1.4,4.4-.7,13.3-3.1,19-5.3,22.1-8.4,37.2-27.5,41.5-52.5.2-1.1.5-2.8.7-3.9,1.6-8.9,1.8-17.4,1.8-102.4v-86c0,0-22.3,0-22.3,0h-22.4v85.4Z"/>
    <path class="st1" d="M332,349c0,68.9.2,125.4.5,125.4.3,0,9.6.1,21,.2h20.5c0,0,0-88.3,0-88.3v-88.4h9.1l2.6,4.5c1.4,2.5,3.6,6.5,4.9,8.9,1.3,2.4,3.6,6.5,5,9.1s3.7,6.6,5,9.1c1.3,2.4,3.7,6.8,5.3,9.7s4,7.3,5.3,9.7c1.3,2.4,3.4,6.3,4.8,8.6,1.3,2.4,2.4,4.4,2.4,4.5s1.1,2.1,2.4,4.5c2.4,4.3,6.1,10.8,8.6,15.5,2.3,4.2,10.9,19.9,12.2,22.2.7,1.2,2.4,4.4,3.9,7,1.4,2.7,2.8,4.9,2.9,4.9.3,0,13.6-22.4,18.2-30.6.6-.9,2.1-3.7,3.6-6.1,1.4-2.4,4.8-8.1,7.5-12.8,8.9-14.9,14.2-24.1,14.9-25.3.4-.7,5.7-9.8,11.9-20.3s11.7-19.8,12.2-20.6c1.3-2.3,1.8-2.5,6.4-2.5h4.2v88.2c0,48.5.2,88.3.5,88.3.3,0,9.6.1,21,.2h20.5c0,0,0-125.4,0-125.4v-125.5h-25.3c-16.3,0-25.5.3-25.9.7s-3.1,5.4-6.1,11.3c-2.9,5.9-9.1,17.8-13.5,26.6-17,33.2-22.1,43.2-28,54.7-3.4,6.5-9.3,18.1-13.1,25.6-3.8,7.6-7.3,14-7.6,14.3s-.8,0-1.1-.9c-.3-.8-7.5-15.6-16-32.8-8.5-17.2-21.5-43.5-28.9-58.5-7.4-14.9-14.9-30.3-16.8-34.2l-3.4-6.9h-51.2v125.3Z"/>
  </g>
</svg>