<?xml version="1.0" encoding="UTF-8"?>
<svg id="Layer_1" xmlns="http://www.w3.org/2000/svg" version="1.1" viewBox="0 0 700 700">
  <!-- Generator: Adobe Illustrator 29.3.1, SVG Export Plug-In . SVG Version: 2.1.0 Build 151)  -->
  <defs>
    <style>
      .st0 {
        fill: #fff;
        fill-rule: evenodd;
      }

      .st1 {
        fill: #8a24f3;
      }
    </style>
  </defs>
  <rect class="st1" width="700" height="700"/>
  <path class="st0" d="M542.5,517c8.6,4.9,12.9,7.4,16.5,7,3.1-.3,5.9-1.9,7.7-4.4,2.1-2.8,2.1-7.8,2.1-17.6V198c0-9.9,0-14.8-2.1-17.6-1.8-2.5-4.6-4.1-7.7-4.4-3.5-.4-7.8,2.1-16.5,7.1l-183.7,107.5c-3.2,1.8-4.8,2.7-6.5,3.1-1.5.3-3.1.3-4.6,0-1.7-.4-3.3-1.3-6.5-3.1l-183.8-107.6c-8.6-4.9-12.9-7.4-16.5-7-3.1.3-5.9,1.9-7.7,4.4-2.1,2.8-2.1,7.8-2.1,17.6v68.3c0,3.6,0,5.5.6,7.1.5,1.4,1.2,2.8,2.3,3.9,1.2,1.3,2.7,2.2,5.9,4l201.3,117.7c3.2,1.8,4.8,2.7,6.5,3.1,1.5.3,3.1.3,4.6,0,1.7-.4,3.3-1.3,6.5-3.1l105.7-61.6c3.4-2,5.2-3,6.6-2.8,1.2.1,2.4.8,3.1,1.8.8,1.1.8,3.1.8,7.1v123.8c0,3.6,0,5.5.5,7.1.5,1.4,1.2,2.8,2.3,3.9,1.2,1.3,2.7,2.2,5.9,4l58.7,34.9ZM269.9,451.2c8.6-4.9,12.9-7.4,14.3-10.6,1.3-2.8,1.3-6,0-8.8-1.4-3.2-5.7-5.7-14.3-10.6l-58-34.5c-3.2-1.8-4.8-2.7-6.5-3.1-1.5-.3-3.1-.3-4.6,0-1.7.4-3.3,1.3-6.5,3.1l-54.4,31.7c-3.2,1.8-4.8,2.7-5.9,4-1,1.1-1.8,2.5-2.3,3.9-.5,1.6-.5,3.5-.5,7.1v68.6c0,9.9,0,14.8,2.1,17.6,1.8,2.5,4.6,4.1,7.7,4.4,3.5.4,7.8-2.1,16.5-7l112.3-65.8Z"/>
</svg>