<?xml version="1.0" encoding="UTF-8"?>
<svg id="Layer_1" xmlns="http://www.w3.org/2000/svg" version="1.1" viewBox="0 0 700 700">
  <!-- Generator: Adobe Illustrator 29.3.1, SVG Export Plug-In . SVG Version: 2.1.0 Build 151)  -->
  <defs>
    <style>
      .st0, .st1, .st2 {
        fill: #fff;
      }

      .st1, .st2 {
        fill-rule: evenodd;
      }

      .st2 {
        isolation: isolate;
        opacity: .3;
      }

      .st3 {
        fill: #0c34f0;
      }
    </style>
  </defs>
  <rect class="st0" width="700" height="700"/>
  <g>
    <path class="st3" d="M131.2,350c0-180.1,38.6-218.7,218.7-218.7s218.8,38.6,218.8,218.7-38.6,218.7-218.8,218.7-218.7-38.6-218.7-218.7Z"/>
    <path class="st2" d="M448.3,312.2c20.2-27.2,33-52.7,36-72.6,12.5-.2,22.3,3,28.4,10,16.4,18.7,2.3,59.8-32.2,105.1,31.2,47.6,42.4,89.6,24.8,107.1-6.6,6.6-16.6,9.1-29,8-1.6-20-12.6-46.4-30.8-74.9-8.7,8.8-17.6,17.2-26.9,25.3-76.2,66.6-157.6,98.2-181.7,70.5-6.1-7-8-17.2-6.1-29.5,36.7-.6,96.5-30.8,153.3-80.5,10.4-9,20.3-18.5,29.9-28.4-8.9-10.5-18.1-20.6-27.8-30.4-53.3-53.5-110.8-87.8-147.3-91-1-12.4,1.6-22.4,8.2-29,26-25.9,105,11.3,176.4,83,8.7,8.7,17.1,17.8,25.1,27.1h0Z"/>
    <path class="st1" d="M201.3,450.3l34.6,39.6c-14.7-18.7-1.5-57.8,30.7-101.1,8,9.3,16.4,18.4,25.1,27.1,71.4,71.8,150.3,108.9,176.4,83,.8-.8,1.6-1.7,2.3-2.6l36.4-35.8h-.2c-.4.5-.9,1-1.3,1.5-26,25.9-105-11.3-176.4-83-9.7-9.7-19-19.9-27.8-30.4,9.6-9.9,19.5-19.3,29.9-28.3,76.2-66.6,157.6-98.2,181.7-70.5.4.5.8,1,1.2,1.5h.2c0,0-33.8-38.2-33.8-38.2-.6-1-1.3-1.9-2.1-2.8-24.2-27.7-105.5,3.9-181.7,70.5-9.3,8.1-18.3,16.5-26.9,25.3-29.1-45.5-39.6-85.4-23.6-103l-37.3,37.1h0c-16.2,18.2-4.9,59.5,25.8,106.1-33.8,44.4-48,84.8-33.1,104h0s0,0,0,0Z"/>
  </g>
</svg>