<?xml version="1.0" encoding="UTF-8"?>
<svg id="Layer_1" xmlns="http://www.w3.org/2000/svg" version="1.1" viewBox="0 0 700 700">
  <!-- Generator: Adobe Illustrator 29.3.1, SVG Export Plug-In . SVG Version: 2.1.0 Build 151)  -->
  <defs>
    <style>
      .st0 {
        fill: #fff;
      }

      .st1 {
        fill: red;
      }
    </style>
  </defs>
  <rect class="st0" width="700" height="700"/>
  <path d="M512.9,441h55.8v-161.2l-55.8,71.6v89.5Z"/>
  <path d="M568.8,259v5.1l-98.4,125.9-42.7-54.5v105.5h-55.8v-181.9h58.8c0,0,39.7,50.7,39.7,50.7l39.6-50.8h58.9Z"/>
  <path d="M371.8,259.1h-63.1l-39.3,50.5h0l-31.5,40.5-70.9,91h63.1l39.4-50.5,38.2,49,1.1,1.5h63.1l-70.9-91,70.9-91Z"/>
  <path class="st1" d="M131.2,259.1v181.9l70.9-91-70.9-91Z"/>
  <path d="M230,259.1h-63.1l65,82.8,31.6-40.4-33.5-42.4Z"/>
</svg>